<svg width="20" height="20" viewBox="0 0 20 20" fill="none" xmlns="http://www.w3.org/2000/svg">
<path d="M3.33337 7.5C3.33337 5.14298 3.33337 3.96447 4.06561 3.23223C4.79784 2.5 5.97635 2.5 8.33337 2.5H11.6667C14.0237 2.5 15.2022 2.5 15.9345 3.23223C16.6667 3.96447 16.6667 5.14298 16.6667 7.5V13.1897C16.6667 15.4257 16.6667 16.5438 15.9631 16.8857C15.2596 17.2277 14.3804 16.537 12.6222 15.1555L12.0594 14.7133C11.0708 13.9365 10.5765 13.5482 10 13.5482C9.4236 13.5482 8.92928 13.9365 7.94063 14.7133L7.37793 15.1555C5.61966 16.537 4.74053 17.2277 4.03695 16.8857C3.33337 16.5438 3.33337 15.4257 3.33337 13.1897V7.5Z" stroke="#1F2228" stroke-width="2"/>
</svg>
