<svg width="20" height="20" viewBox="0 0 20 20" fill="none" xmlns="http://www.w3.org/2000/svg">
<path d="M8.33331 12.5L8.33331 10" stroke="#1F2228" stroke-width="2" stroke-linecap="round"/>
<path d="M11.6667 12.5L11.6667 10" stroke="#1F2228" stroke-width="2" stroke-linecap="round"/>
<path d="M2.5 5.83337H17.5V5.83337C17.0353 5.83337 16.803 5.83337 16.6098 5.8718C15.8164 6.02962 15.1962 6.64981 15.0384 7.44319C15 7.63639 15 7.86872 15 8.33337V12.6667C15 14.5523 15 15.4951 14.4142 16.0809C13.8284 16.6667 12.8856 16.6667 11 16.6667H9C7.11438 16.6667 6.17157 16.6667 5.58579 16.0809C5 15.4951 5 14.5523 5 12.6667V8.33337C5 7.86872 5 7.63639 4.96157 7.44319C4.80376 6.64981 4.18356 6.02962 3.39018 5.8718C3.19698 5.83337 2.96466 5.83337 2.5 5.83337V5.83337Z" stroke="#1F2228" stroke-width="2" stroke-linecap="round"/>
<path d="M8.39014 2.80883C8.4851 2.72023 8.69434 2.64194 8.98542 2.5861C9.27649 2.53027 9.63313 2.5 10 2.5C10.3669 2.5 10.7235 2.53027 11.0146 2.5861C11.3057 2.64194 11.5149 2.72023 11.6099 2.80883" stroke="#1F2228" stroke-width="2" stroke-linecap="round"/>
</svg>
